<svg width="151" height="151" viewBox="0 0 151 151" fill="none" xmlns="http://www.w3.org/2000/svg">
<g clip-path="url(#clip0_201_23)">
<rect width="151" height="151" fill="#EFBAB2"/>
<path d="M8.8 130V126.4L19 124.9H21.55L32.95 126.4V130H8.8ZM16 130L46.6 32.2H61L91.6 130H64.6L41.95 52.6H44.5L43.9 54.7L21.25 130H16ZM28.6 98.8V94.6H69.85V98.8H28.6ZM53.2 130V126.4L70 124H86.2L98.8 126.4V130H53.2Z" fill="black"/>
<path d="M88.4 130V127.6L98.8 126H107.6V130H88.4ZM94.2 130C94.3333 127.4 94.4333 124.367 94.5 120.9C94.6333 117.367 94.7 113.733 94.7 110C94.7667 106.2 94.8 102.6 94.8 99.2V94.9C94.8 91.5 94.7667 88 94.7 84.4C94.7 80.7333 94.6667 77.2 94.6 73.8C94.5333 70.4 94.4333 67.4 94.3 64.8H112.1C111.967 67.4 111.867 70.4 111.8 73.8C111.733 77.2 111.667 80.7333 111.6 84.4C111.6 88 111.6 91.5 111.6 94.9V99.2C111.6 102.6 111.6 106.2 111.6 110C111.667 113.733 111.733 117.367 111.8 120.9C111.867 124.367 111.967 127.4 112.1 130H94.2ZM103.6 130V127.2H128L124.6 128.8L132.8 109.2H135.2L134 130H103.6ZM88.4 67.2V64.8H118V67.2L107.6 68.8H98.8L88.4 67.2Z" fill="black"/>
<circle cx="104.5" cy="38.5" r="11.5" fill="black"/>
</g>
<defs>
<clipPath id="clip0_201_23">
<rect width="151" height="151" fill="white"/>
</clipPath>
</defs>
</svg>
